<?xml version="1.0" encoding="UTF-8"?>
<svg id="Layer_1" xmlns="http://www.w3.org/2000/svg" version="1.1" viewBox="0 0 220 56">
  <defs>
    <style>
      .st0 { fill: #3c51a2; }
      .st1 {
        fill: #3c51a2;
        font-family: 'Arial Black', sans-serif;
        font-size: 38px;
        font-style: italic;
        font-weight: bold;
      }

      /* Анимация: 4 секунды на каждый файл */
      @keyframes toggle-1 {
        0%, 48% { opacity: 1; visibility: visible; }
        50%, 100% { opacity: 0; visibility: hidden; }
      }
      @keyframes toggle-2 {
        0%, 48% { opacity: 0; visibility: hidden; }
        50%, 100% { opacity: 1; visibility: visible; }
      }

      .file-1 { animation: toggle-1 8s infinite; }
      .file-2 { animation: toggle-2 8s infinite; }
    </style>
  </defs>

  <g class="file-1">
    <polyline class="st0" points="64 16.9 77.1 16.9 77.5 29.5 77.7 29.5 83.1 16.9 96.1 16.9 91.4 39.9 83.5 39.9 87.2 21.8 87 21.8 78.8 39.9 71.5 39.9 70.8 21.8 70.5 21.8 66.8 39.9 59.4 39.9 64 16.9"/>
    <path class="st0" d="M103.9,40.3l.7-3.7h-1.6c-6,0-8.2-3.4-8.2-6.8,0-5.1,4.1-11,12.1-11h1.4l.7-3.4h8.8l-.7,3.4h1.4c3.2,0,8.4.8,8.4,6.9s-3.8,10.9-11.7,10.9h-1.7l-.7,3.7h-8.9M107.6,24h-.5c-2.3,0-3.9,2.5-3.9,4.6s.8,2.7,2.4,2.7h.5l1.5-7.3ZM114.1,31.3h.5c2.5,0,3.8-2.7,3.8-4.7s-.9-2.6-2.4-2.6h-.5l-1.4,7.3Z"/>
    <polyline class="st0" points="153.1 16.9 151.7 23.7 144 23.7 140.7 39.9 131.9 39.9 135.2 23.7 127.4 23.7 128.8 16.9 153.1 16.9"/>
    <polyline class="st0" points="163.9 16.9 161.2 30 161.3 30 169.8 16.9 180.1 16.9 175.4 39.9 166.6 39.9 169.3 27 169.1 27 160.7 39.9 150.4 39.9 155.1 16.9 163.9 16.9"/>
    <polyline class="st0" points="186.9 48.5 188.2 42 200.5 45.7 186.9 48.5"/>
    <path class="st0" d="M184,43.5H56.8c-2.4,0-3.4,2.6-4.4,5.1-.3.9-.9,2.3-1.3,2.8-.8-.8-1.3-4.3-1.5-5.7v-.8c-.9-4.8-1.6-9.9-2.2-14.9C44.5,8.4,43.1.9,39.1.8c-5-.1-6.8,8.8-12.1,35.3l-.7,3.5c-.8,3.9-2.6,3.9-3.4,3.9h-2.4l-.6,3.4h3c2,0,5.5-.9,6.7-6.7l.7-3.5c3.3-16.3,6.4-31.7,8.6-32.5,1.9,2,3.8,16,5.1,26.2.7,5,1.4,10.1,2.1,15v.8c.7,3.9,1.4,8.8,5.1,8.8s3.4-2.6,4.4-5.1c.4-1,1-2.5,1.4-3h126.4l.6-3.4"/>
  </g>

  <g class="file-2">
    <text class="st1" transform="translate(18 43.5)">ФИЗТЕХ</text>
  </g>
</svg>